<?xml version="1.0" encoding="UTF-8" standalone="no"?>
<svg
   xmlns:dc="http://purl.org/dc/elements/1.1/"
   xmlns:cc="http://creativecommons.org/ns#"
   xmlns:rdf="http://www.w3.org/1999/02/22-rdf-syntax-ns#"
   xmlns:svg="http://www.w3.org/2000/svg"
   xmlns="http://www.w3.org/2000/svg"
   xmlns:sodipodi="http://sodipodi.sourceforge.net/DTD/sodipodi-0.dtd"
   xmlns:inkscape="http://www.inkscape.org/namespaces/inkscape"
   width="38.82531mm"
   height="21.914902mm"
   viewBox="0 0 38.82531 21.914902"
   version="1.1"
   id="svg4404"
   inkscape:version="1.0.1 (3bc2e813f5, 2020-09-07)"
   sodipodi:docname="Logo Mines Saint-Étienne.svg">
  <defs
     id="defs4398">
    <clipPath
       clipPathUnits="userSpaceOnUse"
       id="clipPath3891">
      <path
         d="M 30.835,291.265 H 140.892 V 410.079 H 30.835 Z"
         id="path3889" />
    </clipPath>
  </defs>
  <sodipodi:namedview
     id="base"
     pagecolor="#ffffff"
     bordercolor="#666666"
     borderopacity="1.0"
     inkscape:pageopacity="0.0"
     inkscape:pageshadow="2"
     inkscape:zoom="0.35"
     inkscape:cx="-592.34362"
     inkscape:cy="382.0664"
     inkscape:document-units="mm"
     inkscape:current-layer="layer1"
     inkscape:document-rotation="0"
     showgrid="false"
     fit-margin-top="0"
     fit-margin-left="0"
     fit-margin-right="0"
     fit-margin-bottom="0"
     inkscape:window-width="1600"
     inkscape:window-height="837"
     inkscape:window-x="-8"
     inkscape:window-y="-8"
     inkscape:window-maximized="1" />
  <metadata
     id="metadata4401">
    <rdf:RDF>
      <cc:Work
         rdf:about="">
        <dc:format>image/svg+xml</dc:format>
        <dc:type
           rdf:resource="http://purl.org/dc/dcmitype/StillImage" />
        <dc:title></dc:title>
      </cc:Work>
    </rdf:RDF>
  </metadata>
  <g
     inkscape:label="Calque 1"
     inkscape:groupmode="layer"
     id="layer1"
     transform="translate(-262.55758,-47.078265)">
    <g
       id="g3885"
       transform="matrix(0.35277777,0,0,-0.35277777,251.67954,191.74502)">
      <g
         id="g3887"
         clip-path="url(#clipPath3891)">
        <g
           id="g3893"
           transform="translate(67.2694,387.6138)">
          <path
             d="m 0,0 28.843,15.188 3.051,1.608 c -0.077,0.042 -0.156,0.086 -0.233,0.126 -0.339,0.173 -1.008,0.507 -1.823,0.871 -1.192,0.532 -2.678,1.122 -3.854,1.35 -0.032,0.004 -0.066,0.014 -0.097,0.021 l -0.001,-0.002 c -0.034,0.008 -4.594,0.959 -7.283,0.959 -14.957,0 -27.086,-11.571 -27.086,-25.846 0,-2.002 0.248,-3.947 0.699,-5.817 l -28.65,-22.106 30.405,17.181 0.013,-0.027 c 0.358,-0.752 0.757,-1.507 1.19,-2.215 l -18.964,-15.293 22.235,11.018 v 0 l 2.543,2.27 15.759,14.079 -18.346,-10.267 c -1.795,3.318 -2.847,7.16 -2.847,11.208 0,12.87 10.322,23.308 23.049,23.308 1.565,0 3.09,-0.16 4.571,-0.459 h -0.001 z"
             style="fill:#D5DDFF;fill-opacity:1;fill-rule:nonzero;stroke:none"
             id="path3895" />
        </g>
        <g
           id="g3897"
           transform="translate(100.1327,403.4495)">
          <path
             d="m 0,0 -22.447,-18.08 27.262,14.803 9.7,9.906 z"
             style="fill:#D5DDFF;fill-opacity:1;fill-rule:nonzero;stroke:none"
             id="path3899" />
        </g>
        <g
           id="g3901"
           transform="translate(112.2444,387.8221)">
          <path
             d="M 0,0 28.647,22.257 -1.813,4.975 c 0.018,-0.041 0.031,-0.079 0.048,-0.12 -0.019,0.038 -0.038,0.079 -0.056,0.116 l 0.008,0.004 c -0.378,0.776 -0.796,1.529 -1.251,2.26 L 14.964,22.054 -6.266,11.387 -6.583,11.229 -8.86,9.247 -24.654,-4.498 -6.189,5.358 c 1.824,-3.336 2.867,-7.174 2.867,-11.26 0,-12.872 -10.319,-23.306 -23.049,-23.306 -1.561,0 -3.086,0.16 -4.56,0.459 l 23.021,17.495 -28.597,-15.586 -3.046,-1.66 c 0.017,-0.01 0.033,-0.018 0.05,-0.027 1.805,-0.958 3.734,-1.725 5.763,-2.272 0.027,-0.007 0.055,-0.013 0.083,-0.02 2.32,-0.62 4.76,-0.961 7.287,-0.961 14.96,0 27.087,11.571 27.087,25.847 0,2.095 -0.268,4.13 -0.761,6.079 C -0.016,0.054 0,0 0,0"
             style="fill:#D5DDFF;fill-opacity:1;fill-rule:nonzero;stroke:none"
             id="path3903" />
        </g>
        <g
           id="g3905"
           transform="translate(69.7076,365.315)">
          <path
             d="m 0,0 -3.019,-1.67 -9.934,-10.241 14.596,6.665 0.005,0.005 2.441,1.997 20.74,16.965 z"
             style="fill:#D5DDFF;fill-opacity:1;fill-rule:nonzero;stroke:none"
             id="path3907" />
        </g>

      </g>
    </g>
  </g>
</svg>
